<svg id="svg" version="1.1" xmlns="http://www.w3.org/2000/svg" xmlns:xlink="http://www.w3.org/1999/xlink" width="400" height="400" viewBox="0, 0, 400,400"><g id="svgg"><path id="path0" d="M54.179 57.297 C 43.117 58.630,35.699 62.066,28.573 69.158 C 22.419 75.282,19.033 81.863,17.128 91.405 C 16.711 93.494,16.432 256.752,16.836 262.359 C 18.126 280.261,31.466 295.402,49.116 298.999 C 53.073 299.806,56.563 299.930,75.459 299.935 L 93.657 299.941 93.677 321.814 C 93.688 333.844,93.742 344.007,93.797 344.398 C 94.934 352.423,103.671 356.353,110.010 351.691 C 110.514 351.320,122.465 339.525,136.569 325.479 L 162.211 299.941 252.356 299.935 C 306.998 299.932,343.641 299.841,345.395 299.705 C 364.425 298.225,379.231 284.627,382.576 265.560 C 383.012 263.078,383.118 94.768,382.685 91.998 C 379.906 74.181,367.044 61.078,349.005 57.687 C 346.957 57.302,57.319 56.919,54.179 57.297 " stroke="none" fill="#ece4c4" fill-rule="evenodd"></path><path id="path1" d="M383.045 178.423 C 383.045 223.023,383.073 241.233,383.106 218.890 C 383.139 196.547,383.139 160.056,383.106 137.799 C 383.073 115.543,383.045 133.823,383.045 178.423 " stroke="none" fill="#f0e4c4" fill-rule="evenodd"></path><path id="path2" d="M383.045 178.423 C 383.045 223.023,383.073 241.233,383.106 218.890 C 383.139 196.547,383.139 160.056,383.106 137.799 C 383.073 115.543,383.045 133.823,383.045 178.423 " stroke="none" fill="#f0e4c4" fill-rule="evenodd"></path><path id="path3" d="M383.045 178.423 C 383.045 223.023,383.073 241.233,383.106 218.890 C 383.139 196.547,383.139 160.056,383.106 137.799 C 383.073 115.543,383.045 133.823,383.045 178.423 " stroke="none" fill="#f0e4c4" fill-rule="evenodd"></path><path id="path4" d="M383.045 178.423 C 383.045 223.023,383.073 241.233,383.106 218.890 C 383.139 196.547,383.139 160.056,383.106 137.799 C 383.073 115.543,383.045 133.823,383.045 178.423 " stroke="none" fill="#f0e4c4" fill-rule="evenodd"></path></g></svg>